<svg width="697" height="698" viewBox="0 0 697 698" fill="none" xmlns="http://www.w3.org/2000/svg">
<g clip-path="url(#clip0)">
<rect x="0.299805" y="0.881836" width="696.218" height="696.218" rx="121.081" fill="#0F2C41"/>
<path opacity="0.07" d="M127.436 378.959C135.124 374.479 140.694 374.358 144.145 378.596C147.596 382.773 149.291 389.856 149.291 399.845V453.666C149.291 463.897 150.259 472.373 152.136 479.093C154.013 486.055 157.222 491.02 161.641 493.926C165.939 496.892 171.751 497.679 179.137 496.287C186.342 494.955 195.362 491.201 206.138 484.966L211.284 481.999V439.621L204.867 443.314C197.178 447.794 192.032 448.339 189.429 445.069C186.705 441.921 185.312 435.322 185.312 425.333V377.93C185.312 365.579 184.102 355.832 181.68 348.628C179.258 341.484 174.476 336.883 167.271 334.825C174.476 324.472 179.258 314.362 181.68 304.433C184.102 294.505 185.252 283.365 185.252 271.015V223.611C185.252 213.622 186.644 205.51 189.369 199.153C191.911 192.917 197.057 187.59 204.807 183.11L211.224 179.417V137.038L206.078 140.005C195.241 146.301 186.221 152.9 179.077 159.922C171.691 167.006 165.879 174.573 161.581 182.504C157.1 190.556 153.952 199.153 152.076 208.295C150.199 217.194 149.23 226.759 149.23 236.991V290.812C149.23 300.801 147.535 309.882 144.084 317.994C140.633 326.167 135.064 332.464 127.375 336.883L127.436 378.959Z" fill="url(#paint0_linear)"/>
<path opacity="0.07" d="M322.679 223.066C314.991 227.546 309.421 227.667 305.97 223.429C302.519 219.252 300.824 212.169 300.824 202.18V148.359C300.824 138.128 299.856 129.652 297.979 122.932C296.102 115.97 293.015 110.945 288.716 107.978C284.236 105.072 278.424 104.285 271.22 105.617C263.834 107.01 254.753 110.824 243.977 117.059L238.831 120.026V162.404L245.248 158.711C252.937 154.231 258.204 153.626 260.928 156.774C263.471 160.043 264.803 166.642 264.803 176.631V224.035C264.803 236.385 266.013 246.132 268.435 253.337C270.857 260.48 275.639 265.081 282.844 267.14C275.639 277.492 270.857 287.603 268.435 297.531C266.013 307.46 264.863 318.599 264.863 330.95V378.353C264.863 388.342 263.592 396.455 260.988 402.69C258.264 409.047 252.997 414.435 245.308 418.855L238.891 422.548V464.926L244.037 461.96C254.813 455.724 263.894 449.065 271.28 441.981C278.485 434.959 284.297 427.452 288.777 419.4C293.075 411.469 296.163 402.933 298.039 393.73C299.916 384.831 300.885 375.205 300.885 365.034V311.213C300.885 301.224 302.58 292.143 306.031 284.031C309.482 275.858 315.051 269.561 322.74 265.142L322.679 223.066Z" fill="url(#paint1_linear)"/>
<path opacity="0.4" d="M151.652 397.121C159.341 392.641 164.91 392.52 168.361 396.758C171.812 400.935 173.507 408.018 173.507 418.007V471.828C173.507 482.06 174.476 490.535 176.352 497.255C178.229 504.217 181.438 509.182 185.857 512.088C190.156 515.054 195.968 515.841 203.354 514.449C210.558 513.117 219.579 509.363 230.355 503.128L235.501 500.161V457.783L229.083 461.476C221.395 465.956 216.249 466.501 213.646 463.231C210.921 460.083 209.529 453.484 209.529 443.495V396.092C209.529 383.741 208.318 373.994 205.896 366.79C203.475 359.646 198.692 355.045 191.488 352.987C198.692 342.634 203.475 332.524 205.896 322.595C208.318 312.667 209.468 301.527 209.468 289.177V241.773C209.468 231.784 210.861 223.672 213.585 217.315C216.128 211.079 221.274 205.752 229.023 201.272L235.44 197.579V155.2L230.294 158.167C219.518 164.402 210.497 171.001 203.293 178.024C195.907 185.107 190.095 192.675 185.797 200.606C181.317 208.658 178.169 217.254 176.292 226.396C174.415 235.356 173.447 244.922 173.447 255.153V308.974C173.447 318.963 171.751 328.044 168.301 336.156C164.85 344.269 159.341 350.626 151.591 355.045L151.652 397.121Z" fill="url(#paint2_linear)"/>
<path opacity="0.4" d="M346.896 241.228C339.207 245.708 333.637 245.829 330.187 241.592C326.736 237.414 325.041 230.331 325.041 220.342V166.521C325.041 156.29 324.072 147.814 322.195 141.094C320.318 134.132 317.231 129.107 312.932 126.14C308.452 123.234 302.641 122.447 295.436 123.779C288.05 125.172 278.969 128.986 268.193 135.221L263.047 138.188V180.566L269.464 176.873C277.153 172.393 282.42 171.788 285.144 174.936C287.687 178.205 289.019 184.804 289.019 194.794V242.197C289.019 254.547 290.23 264.294 292.651 271.499C295.073 278.642 299.856 283.244 307.06 285.302C299.856 295.654 295.073 305.765 292.651 315.693C290.23 325.622 289.079 336.762 289.079 349.112V396.515C289.079 406.504 287.808 414.617 285.205 420.853C282.48 427.209 277.213 432.598 269.525 437.017L263.107 440.71V483.088L268.253 480.122C279.03 473.886 288.111 467.227 295.497 460.144C302.701 453.121 308.513 445.614 312.993 437.562C317.291 429.631 320.379 421.095 322.256 411.893C324.132 402.993 325.101 393.367 325.101 383.196V329.376C325.101 319.386 326.796 310.305 330.247 302.193C333.698 294.02 339.268 287.724 346.956 283.304L346.896 241.228Z" fill="url(#paint3_linear)"/>
<path opacity="0.15" d="M481.296 112.398L377.832 172.152L377.893 419.945L481.357 360.191L481.296 112.398Z" fill="url(#paint4_linear)"/>
<path d="M500.73 150.478L418.455 198.002V220.765L500.73 173.241V150.478Z" fill="white"/>
<path opacity="0.15" d="M468.522 249.522L389.456 295.17V330.647L468.522 284.999V249.522Z" fill="white"/>
<path opacity="0.15" d="M468.583 206.599L389.396 252.307V260.541L468.583 214.833V206.599Z" fill="white"/>
<path opacity="0.15" d="M468.582 222.703L400.111 262.236V270.47L468.582 230.937V222.703Z" fill="white"/>
<path opacity="0.2" d="M481.296 112.398L377.832 172.152V205.389L481.296 145.635V112.398Z" fill="url(#paint5_linear)"/>
<path opacity="0.2" d="M455.445 144.121C455.445 149.146 458.412 151.507 462.044 149.449C465.677 147.33 468.583 141.578 468.583 136.553C468.583 131.529 465.616 129.167 461.984 131.226C458.351 133.345 455.445 139.096 455.445 144.121Z" fill="white"/>
<path opacity="0.15" d="M354.16 342.15L250.696 401.904L250.757 649.697L354.221 589.943L354.16 342.15Z" fill="url(#paint6_linear)"/>
<path d="M314.748 414.254L232.474 461.778V484.542L314.748 437.017V414.254Z" fill="#245FFF"/>
<path opacity="0.15" d="M341.386 437.805L262.26 483.513V518.929L341.386 473.221V437.805Z" fill="white"/>
<path opacity="0.15" d="M341.447 488.416L262.26 534.124V542.358L341.447 496.71V488.416Z" fill="white"/>
<path opacity="0.15" d="M341.447 503.31L272.976 542.843V551.076L341.447 511.543V503.31Z" fill="white"/>
<path opacity="0.2" d="M354.16 342.15L250.696 401.904V435.14L354.16 375.387V342.15Z" fill="url(#paint7_linear)"/>
<path opacity="0.2" d="M328.31 373.933C328.31 378.958 331.276 381.319 334.909 379.261C338.541 377.142 341.447 371.391 341.447 366.366C341.447 361.341 338.48 358.98 334.848 361.038C331.216 363.097 328.31 368.909 328.31 373.933Z" fill="white"/>
<path opacity="0.3" d="M372.02 376.476L552.189 272.467L552.129 366.366L387.882 461.233L372.02 484.784V376.476Z" fill="url(#paint8_linear)"/>
<path opacity="0.15" d="M418.333 372.602L457.806 349.839V358.072L418.333 380.836V372.602Z" fill="white"/>
<path opacity="0.15" d="M418.333 389.129L516.107 332.705V340.939L418.333 397.363V389.129Z" fill="white"/>
<path opacity="0.15" d="M418.333 405.657L536.267 337.548V345.782L418.333 413.89V405.657Z" fill="white"/>
<path d="M408.647 386.828C408.647 394.578 404.046 403.477 398.416 406.746C392.786 410.016 388.185 406.383 388.185 398.634C388.185 390.885 392.786 381.985 398.416 378.716C404.046 375.447 408.647 379.079 408.647 386.828Z" fill="#245FFF"/>
<path opacity="0.15" d="M534.39 206.599L558.243 192.796V184.744L534.39 198.547C532.453 199.698 529.607 201.938 527.186 205.449C524.582 209.203 522.706 213.925 522.706 219.071C522.706 224.762 524.159 227.97 526.883 228.939C529.486 229.786 532.513 228.333 534.39 227.244L544.198 221.553L544.258 221.492C545.106 221.008 546.438 220.524 547.467 220.826C548.314 221.069 549.344 221.977 549.344 225.125C549.344 228.273 548.375 230.21 547.527 231.36C546.498 232.813 545.166 233.843 544.319 234.266L544.198 234.327L514.169 251.642V259.694L544.016 242.439C546.074 241.35 549.041 239.11 551.584 235.538C554.368 231.603 556.306 226.638 556.306 221.069C556.306 215.559 554.368 212.714 551.644 211.927C549.101 211.2 546.135 212.29 544.077 213.501L534.329 219.131C532.937 219.918 531.847 220.282 531.181 220.039C530.637 219.858 529.668 219.071 529.668 215.015C529.668 212.351 530.515 210.656 531.363 209.445C532.332 208.113 533.603 207.023 534.39 206.599Z" fill="white"/>
<path d="M551.16 193.643C551.16 200.545 555.216 203.753 560.181 200.908C565.145 198.063 569.201 190.132 569.201 183.23C569.201 176.328 565.145 173.12 560.181 175.965C555.156 178.871 551.16 186.802 551.16 193.643Z" fill="white"/>
<path d="M503.333 260.238C503.333 267.14 507.389 270.409 512.354 267.503C517.318 264.597 521.374 256.727 521.374 249.825C521.374 242.924 517.318 239.654 512.354 242.56C507.329 245.466 503.333 253.397 503.333 260.238Z" fill="white"/>
<path opacity="0.2" d="M438.978 470.738C435.345 472.857 432.439 477.882 432.439 482.12V500.585L420.21 507.608C416.578 509.727 413.672 514.752 413.672 518.989C413.672 523.167 416.638 524.862 420.21 522.803L432.439 515.781V534.246C432.439 538.423 435.406 540.118 438.978 538.06C442.61 535.941 445.516 530.916 445.516 526.678V508.213L457.746 501.19C461.378 499.071 464.284 494.047 464.284 489.809C464.284 485.631 461.317 483.936 457.746 485.995L445.516 493.017V474.552C445.516 470.315 442.61 468.619 438.978 470.738Z" fill="url(#paint9_linear)"/>
</g>
<defs>
<linearGradient id="paint0_linear" x1="89.3287" y1="149.279" x2="238.64" y2="408.059" gradientUnits="userSpaceOnUse">
<stop stop-color="white"/>
<stop offset="1" stop-color="white" stop-opacity="0"/>
</linearGradient>
<linearGradient id="paint1_linear" x1="161.123" y1="106.735" x2="310.434" y2="365.515" gradientUnits="userSpaceOnUse">
<stop stop-color="white"/>
<stop offset="1" stop-color="white" stop-opacity="0"/>
</linearGradient>
<linearGradient id="paint2_linear" x1="113.545" y1="167.441" x2="262.857" y2="426.221" gradientUnits="userSpaceOnUse">
<stop stop-color="white"/>
<stop offset="1" stop-color="white" stop-opacity="0"/>
</linearGradient>
<linearGradient id="paint3_linear" x1="185.339" y1="124.897" x2="334.651" y2="383.677" gradientUnits="userSpaceOnUse">
<stop stop-color="white"/>
<stop offset="1" stop-color="white" stop-opacity="0"/>
</linearGradient>
<linearGradient id="paint4_linear" x1="375.936" y1="173.213" x2="474.78" y2="344.46" gradientUnits="userSpaceOnUse">
<stop stop-color="white"/>
<stop offset="1" stop-color="white" stop-opacity="0"/>
</linearGradient>
<linearGradient id="paint5_linear" x1="445.779" y1="112.904" x2="414.29" y2="202.188" gradientUnits="userSpaceOnUse">
<stop stop-color="white"/>
<stop offset="1" stop-color="white" stop-opacity="0"/>
</linearGradient>
<linearGradient id="paint6_linear" x1="248.805" y1="402.98" x2="347.649" y2="574.228" gradientUnits="userSpaceOnUse">
<stop stop-color="white"/>
<stop offset="1" stop-color="white" stop-opacity="0"/>
</linearGradient>
<linearGradient id="paint7_linear" x1="318.648" y1="342.671" x2="287.159" y2="431.955" gradientUnits="userSpaceOnUse">
<stop stop-color="white"/>
<stop offset="1" stop-color="white" stop-opacity="0"/>
</linearGradient>
<linearGradient id="paint8_linear" x1="411.334" y1="338.9" x2="504.355" y2="411.733" gradientUnits="userSpaceOnUse">
<stop stop-color="white"/>
<stop offset="1" stop-color="white" stop-opacity="0"/>
</linearGradient>
<linearGradient id="paint9_linear" x1="426.331" y1="494.327" x2="458.038" y2="519.333" gradientUnits="userSpaceOnUse">
<stop stop-color="white"/>
<stop offset="1" stop-color="white" stop-opacity="0"/>
</linearGradient>
<clipPath id="clip0">
<rect width="696.218" height="696.218" fill="white" transform="translate(0.299805 0.881836)"/>
</clipPath>
</defs>
</svg>
